<?xml version="1.0" encoding="UTF-8"?>
<!DOCTYPE svg PUBLIC "-//W3C//DTD SVG 1.1//EN" "http://www.w3.org/Graphics/SVG/1.1/DTD/svg11.dtd">
<!-- Creator: CorelDRAW -->
<svg xmlns="http://www.w3.org/2000/svg" xml:space="preserve" width="833.729mm" height="201.38mm" version="1.1" style="shape-rendering:geometricPrecision; text-rendering:geometricPrecision; image-rendering:optimizeQuality; fill-rule:evenodd; clip-rule:evenodd"
viewBox="0 0 38573.78 9317.17"
 xmlns:xlink="http://www.w3.org/1999/xlink"
 xmlns:xodm="http://www.corel.com/coreldraw/odm/2003">
 <defs>
  <style type="text/css">
   <![CDATA[
    .fil0 {fill:black;fill-rule:nonzero}
    .fil2 {fill:white;fill-rule:nonzero}
    .fil1 {fill:url(#id0)}
   ]]>
  </style>
  <radialGradient id="id0" gradientUnits="userSpaceOnUse" gradientTransform="matrix(1.18571 0.68457 -0.68457 1.18571 2324 -4054)" cx="4658.59" cy="4658.58" r="2888.32" fx="4658.59" fy="4658.58">
   <stop offset="0" style="stop-opacity:1; stop-color:#00A6C8"/>
   <stop offset="0.568627" style="stop-opacity:1; stop-color:#005397"/>
   <stop offset="1" style="stop-opacity:1; stop-color:#000066"/>
  </radialGradient>
 </defs>
 <g id="Слой_x0020_1">
  <metadata id="CorelCorpID_0Corel-Layer"/>
  <path class="fil0" d="M13659.61 4249.22l0 -1975.24 1377.33 0 0 387.9 -899.81 0 0 405.1 829.2 0 0 388.35 -829.2 0 0 406 899.81 0 0 387.9 -1377.33 0zm3357.1 -1975.24l0 1975.24 -405.1 0 -785.75 -1140.16 -12.67 0 0 1140.16 -477.52 0 0 -1975.24 410.98 0 777.15 1138.35 16.3 0 0 -1138.35 476.61 0zm298.73 1975.24l0 -1975.24 1377.33 0 0 387.9 -899.81 0 0 405.1 829.2 0 0 388.35 -829.2 0 0 406 899.81 0 0 387.9 -1377.33 0zm1676.06 0l0 -1975.24 816.08 0c148.01,0 275.65,26.71 383.37,79.66 107.73,52.96 190.56,129 249.4,227.67 58.39,98.67 87.36,215.45 87.36,350.78 0,136.69 -29.87,253.01 -89.62,348.52 -59.74,95.5 -144.38,167.92 -254.37,217.71 -109.98,49.79 -240.34,74.68 -390.61,74.68l-515.99 0 0 -376.13 427.28 0c71.97,0 132.17,-9.05 180.6,-28.07 48.88,-19.01 85.55,-47.98 110.44,-86.9 25.35,-38.92 37.57,-89.16 37.57,-149.82 0,-61.1 -12.22,-111.8 -37.57,-152.08 -24.89,-40.28 -62.01,-70.61 -110.89,-90.53 -48.89,-20.37 -108.63,-30.32 -180.14,-30.32l-235.36 0 0 1590.06 -477.52 0zm1112.09 -902.53l492 902.53 -520.97 0 -482.04 -902.53 511.01 0zm1982.04 -427.28c-10.86,-40.73 -27.16,-76.49 -48.43,-107.72 -20.82,-31.23 -47.07,-57.48 -77.85,-79.66 -30.78,-21.73 -66.54,-38.02 -106.37,-49.33 -39.83,-11.32 -83.28,-17.2 -130.81,-17.2 -95.96,0 -178.79,23.54 -248.49,69.71 -69.71,46.16 -123.57,113.61 -161.59,201.87 -38.02,88.71 -57.03,195.53 -57.03,321.81 0,126.74 18.56,234.46 55.22,324.08 36.66,89.17 89.62,157.51 158.87,204.13 69.71,47.07 153.89,70.61 253.02,70.61 87.36,0 161.59,-14.49 222.24,-43 60.65,-28.51 106.82,-69.25 138.5,-121.76 31.23,-52.96 47.07,-114.97 47.07,-186.48l88.72 10.86 -480.23 0 0 -348.07 851.38 0 0 261.17c0,176.97 -37.12,328.15 -112.25,454.43 -74.68,125.83 -177.88,222.69 -308.69,290.13 -130.8,67.44 -281.08,101.39 -450.81,101.39 -188.29,0 -353.95,-41.19 -496.52,-122.66 -143.03,-81.47 -253.92,-198.25 -333.59,-349.42 -80.11,-151.63 -119.94,-331.32 -119.94,-539.53 0,-162.04 24.44,-305.97 72.42,-431.8 48.43,-125.83 115.87,-232.19 202.32,-319.55 86.45,-87.36 186.48,-153.89 300.54,-198.7 114.06,-45.26 237.17,-67.44 368.89,-67.44 114.51,0 221.33,16.3 320,48.88 98.67,33.04 186.03,79.21 262.07,138.96 76.49,59.74 138.05,130.81 185.58,213.19 47.53,82.38 77.4,172.45 88.72,271.12l-482.95 0zm600.63 -645.44l533.19 0 417.77 826.49 17.2 0 417.77 -826.49 533.19 0 -722.39 1315.77 0 659.47 -474.35 0 0 -659.47 -722.38 -1315.77zm3771.7 592.48c-6.34,-71.06 -34.85,-125.83 -85.55,-165.66 -50.24,-39.38 -122.21,-59.3 -215.44,-59.3 -61.56,0 -113.16,8.15 -154.35,23.99 -41.19,16.3 -71.97,38.48 -92.33,66.08 -20.82,28.07 -31.23,60.2 -32.14,95.96 -0.91,29.87 4.98,55.67 18.1,78.31 13.13,22.63 32.59,42.09 57.93,59.29 25.34,17.2 56.13,32.14 91.88,44.81 36.21,12.67 76.5,23.99 121.76,33.95l169.73 38.48c97.32,21.27 183.77,49.33 258.9,84.64 74.68,35.31 137.6,77.85 188.74,126.73 51.14,48.43 90.07,105.01 116.32,168.38 26.25,63.82 39.83,135.33 40.73,214.09 -0.9,124.92 -32.59,231.74 -94.6,321.36 -62.46,89.16 -152.08,157.96 -268.85,205.49 -116.33,47.53 -257.09,71.07 -421.84,71.07 -165.21,0 -309.14,-24.44 -431.81,-74.23 -123.11,-49.34 -218.61,-124.47 -286.51,-225.41 -68.34,-100.94 -103.2,-228.58 -105.01,-382.92l457.15 0c3.62,63.37 20.82,116.78 50.69,158.87 30.32,42.55 71.96,74.68 124.92,96.41 53.41,22.18 114.97,33.04 184.67,33.04 64.27,0 119.04,-8.6 164.76,-26.25 45.26,-17.2 80.11,-41.19 104.55,-71.97 24.44,-31.23 37.12,-66.54 37.57,-106.37 -0.45,-37.12 -12.22,-69.25 -34.85,-95.95 -22.63,-26.71 -57.03,-49.79 -103.65,-69.25 -46.62,-19.92 -105.91,-38.02 -177.88,-54.77l-206.4 -47.98c-171.09,-39.38 -305.52,-102.74 -404.19,-190.55 -98.22,-87.81 -147.1,-206.4 -146.65,-356.21 -0.45,-122.21 32.59,-229.48 98.67,-321.36 66.08,-91.89 157.51,-163.4 274.74,-215 117.23,-51.15 250.3,-76.95 400.12,-76.95 152.99,0 286.06,25.8 398.76,77.4 113.15,52.05 200.51,124.47 262.97,217.71 62.46,93.24 94.14,200.96 95.5,324.07l-457.15 0zm627.79 -592.48l533.19 0 417.77 826.49 17.2 0 417.77 -826.49 533.19 0 -722.39 1315.77 0 659.47 -474.35 0 0 -659.47 -722.38 -1315.77zm3187.37 592.48c-6.34,-71.06 -34.85,-125.83 -85.55,-165.66 -50.24,-39.38 -122.21,-59.3 -215.44,-59.3 -61.56,0 -113.16,8.15 -154.35,23.99 -41.19,16.3 -71.97,38.48 -92.33,66.08 -20.82,28.07 -31.23,60.2 -32.14,95.96 -0.91,29.87 4.98,55.67 18.1,78.31 13.13,22.63 32.59,42.09 57.93,59.29 25.34,17.2 56.13,32.14 91.88,44.81 36.21,12.67 76.5,23.99 121.76,33.95l169.73 38.48c97.32,21.27 183.77,49.33 258.9,84.64 74.68,35.31 137.6,77.85 188.74,126.73 51.14,48.43 90.07,105.01 116.32,168.38 26.25,63.82 39.83,135.33 40.73,214.09 -0.9,124.92 -32.59,231.74 -94.6,321.36 -62.46,89.16 -152.08,157.96 -268.85,205.49 -116.33,47.53 -257.09,71.07 -421.84,71.07 -165.21,0 -309.14,-24.44 -431.81,-74.23 -123.11,-49.34 -218.61,-124.47 -286.51,-225.41 -68.34,-100.94 -103.2,-228.58 -105.01,-382.92l457.15 0c3.62,63.37 20.82,116.78 50.69,158.87 30.32,42.55 71.96,74.68 124.92,96.41 53.41,22.18 114.97,33.04 184.67,33.04 64.27,0 119.04,-8.6 164.76,-26.25 45.26,-17.2 80.11,-41.19 104.55,-71.97 24.44,-31.23 37.12,-66.54 37.57,-106.37 -0.45,-37.12 -12.22,-69.25 -34.85,-95.95 -22.63,-26.71 -57.03,-49.79 -103.65,-69.25 -46.62,-19.92 -105.91,-38.02 -177.88,-54.77l-206.4 -47.98c-171.09,-39.38 -305.52,-102.74 -404.19,-190.55 -98.22,-87.81 -147.1,-206.4 -146.65,-356.21 -0.45,-122.21 32.59,-229.48 98.67,-321.36 66.08,-91.89 157.51,-163.4 274.74,-215 117.23,-51.15 250.3,-76.95 400.12,-76.95 152.99,0 286.06,25.8 398.76,77.4 113.15,52.05 200.51,124.47 262.97,217.71 62.46,93.24 94.14,200.96 95.5,324.07l-457.15 0zm661.74 -204.58l0 -387.9 1669.27 0 0 387.9 -598.82 0 0 1587.35 -470.73 0 0 -1587.35 -599.73 0zm1903.28 1587.35l0 -1975.24 1377.33 0 0 387.9 -899.81 0 0 405.1 829.2 0 0 388.35 -829.2 0 0 406 899.81 0 0 387.9 -1377.33 0zm1676.06 -1975.24l591.12 0 501.51 1222.99 23.08 0 501.51 -1222.99 591.58 0 0 1975.24 -464.84 0 0 -1213.03 -16.75 0 -474.35 1200.36 -296.92 0 -474.35 -1207.15 -16.75 0 0 1219.82 -464.84 0 0 -1975.24zm3575.27 592.48c-6.34,-71.06 -34.85,-125.83 -85.55,-165.66 -50.24,-39.38 -122.21,-59.3 -215.44,-59.3 -61.56,0 -113.16,8.15 -154.35,23.99 -41.19,16.3 -71.97,38.48 -92.33,66.08 -20.82,28.07 -31.23,60.2 -32.14,95.96 -0.91,29.87 4.98,55.67 18.1,78.31 13.13,22.63 32.59,42.09 57.93,59.29 25.34,17.2 56.13,32.14 91.88,44.81 36.21,12.67 76.5,23.99 121.76,33.95l169.73 38.48c97.32,21.27 183.77,49.33 258.9,84.64 74.68,35.31 137.6,77.85 188.74,126.73 51.14,48.43 90.07,105.01 116.32,168.38 26.25,63.82 39.83,135.33 40.73,214.09 -0.9,124.92 -32.59,231.74 -94.6,321.36 -62.46,89.16 -152.08,157.96 -268.85,205.49 -116.33,47.53 -257.09,71.07 -421.84,71.07 -165.21,0 -309.14,-24.44 -431.81,-74.23 -123.11,-49.34 -218.61,-124.47 -286.51,-225.41 -68.34,-100.94 -103.2,-228.58 -105.01,-382.92l457.15 0c3.62,63.37 20.82,116.78 50.69,158.87 30.32,42.55 71.96,74.68 124.92,96.41 53.41,22.18 114.97,33.04 184.67,33.04 64.27,0 119.04,-8.6 164.76,-26.25 45.26,-17.2 80.11,-41.19 104.55,-71.97 24.44,-31.23 37.12,-66.54 37.57,-106.37 -0.45,-37.12 -12.22,-69.25 -34.85,-95.95 -22.63,-26.71 -57.03,-49.79 -103.65,-69.25 -46.62,-19.92 -105.91,-38.02 -177.88,-54.77l-206.4 -47.98c-171.09,-39.38 -305.52,-102.74 -404.19,-190.55 -98.22,-87.81 -147.1,-206.4 -146.65,-356.21 -0.45,-122.21 32.59,-229.48 98.67,-321.36 66.08,-91.89 157.51,-163.4 274.74,-215 117.23,-51.15 250.3,-76.95 400.12,-76.95 152.99,0 286.06,25.8 398.76,77.4 113.15,52.05 200.51,124.47 262.97,217.71 62.46,93.24 94.14,200.96 95.5,324.07l-457.15 0zm-24429.86 2201.04l591.12 0 501.51 1222.99 23.08 0 501.51 -1222.99 591.58 0 0 1975.24 -464.84 0 0 -1213.03 -16.75 0 -474.35 1200.36 -296.92 0 -474.35 -1207.15 -16.75 0 0 1219.82 -464.84 0 0 -1975.24zm2934.81 1975.24l-512.82 0 666.26 -1975.24 635.48 0 666.26 1975.24 -512.82 0 -463.94 -1477.36 -15.39 0 -463.03 1477.36zm-68.35 -777.15l1072.26 0 0 362.55 -1072.26 0 0 -362.55zm3417.76 -1198.09l0 1975.24 -405.1 0 -785.75 -1140.16 -12.67 0 0 1140.16 -477.52 0 0 -1975.24 410.98 0 777.15 1138.35 16.3 0 0 -1138.35 476.61 0zm1595.04 645.44c-10.86,-40.73 -27.16,-76.49 -48.43,-107.72 -20.82,-31.23 -47.07,-57.48 -77.85,-79.66 -30.78,-21.73 -66.54,-38.02 -106.37,-49.33 -39.83,-11.32 -83.28,-17.2 -130.81,-17.2 -95.96,0 -178.79,23.54 -248.49,69.71 -69.71,46.16 -123.57,113.61 -161.59,201.87 -38.02,88.71 -57.03,195.53 -57.03,321.81 0,126.74 18.56,234.46 55.22,324.08 36.66,89.17 89.62,157.51 158.87,204.13 69.71,47.07 153.89,70.61 253.02,70.61 87.36,0 161.59,-14.49 222.24,-43 60.65,-28.51 106.82,-69.25 138.5,-121.76 31.23,-52.96 47.07,-114.97 47.07,-186.48l88.72 10.86 -480.23 0 0 -348.07 851.38 0 0 261.17c0,176.97 -37.12,328.15 -112.25,454.43 -74.68,125.83 -177.88,222.69 -308.69,290.13 -130.8,67.44 -281.08,101.39 -450.81,101.39 -188.29,0 -353.95,-41.19 -496.52,-122.66 -143.03,-81.47 -253.92,-198.25 -333.59,-349.42 -80.11,-151.63 -119.94,-331.32 -119.94,-539.53 0,-162.04 24.44,-305.97 72.42,-431.8 48.43,-125.83 115.87,-232.19 202.32,-319.55 86.45,-87.36 186.48,-153.89 300.54,-198.7 114.06,-45.26 237.17,-67.44 368.89,-67.44 114.51,0 221.33,16.3 320,48.88 98.67,33.04 186.03,79.21 262.07,138.96 76.49,59.74 138.05,130.81 185.58,213.19 47.53,82.38 77.4,172.45 88.72,271.12l-482.95 0zm1980.68 -645.44l476.61 0 0 1274.13c0,147.1 -35.3,275.2 -105.01,384.28 -70.16,109.08 -167.92,193.27 -293.3,252.56 -125.38,59.75 -271.12,89.17 -436.78,89.17 -167.92,0 -314.57,-29.42 -439.95,-89.17 -125.38,-59.29 -222.69,-143.48 -292.4,-252.56 -69.25,-109.08 -104.1,-237.17 -104.1,-384.28l0 -1274.13 477.52 0 0 1232.49c0,68.34 14.93,129 44.81,182.41 29.87,53.41 71.97,95.05 125.83,125.38 53.86,30.33 116.78,45.26 188.29,45.26 71.06,0 133.53,-14.93 187.39,-45.26 53.86,-30.33 95.5,-71.97 125.83,-125.38 30.33,-53.41 45.26,-114.06 45.26,-182.41l0 -1232.49zm1843.08 592.48c-6.34,-71.06 -34.85,-125.83 -85.55,-165.66 -50.24,-39.38 -122.21,-59.3 -215.44,-59.3 -61.56,0 -113.16,8.15 -154.35,23.99 -41.19,16.3 -71.97,38.48 -92.33,66.08 -20.82,28.07 -31.23,60.2 -32.14,95.96 -0.91,29.87 4.98,55.67 18.1,78.31 13.13,22.63 32.59,42.09 57.93,59.29 25.34,17.2 56.13,32.14 91.88,44.81 36.21,12.67 76.5,23.99 121.76,33.95l169.73 38.48c97.32,21.27 183.77,49.33 258.9,84.64 74.68,35.31 137.6,77.85 188.74,126.73 51.14,48.43 90.07,105.01 116.32,168.38 26.25,63.82 39.83,135.33 40.73,214.09 -0.9,124.92 -32.59,231.74 -94.6,321.36 -62.46,89.16 -152.08,157.96 -268.85,205.49 -116.33,47.53 -257.09,71.07 -421.84,71.07 -165.21,0 -309.14,-24.44 -431.81,-74.23 -123.11,-49.34 -218.61,-124.47 -286.51,-225.41 -68.34,-100.94 -103.2,-228.58 -105.01,-382.92l457.15 0c3.62,63.37 20.82,116.78 50.69,158.87 30.32,42.55 71.96,74.68 124.92,96.41 53.41,22.18 114.97,33.04 184.67,33.04 64.27,0 119.04,-8.6 164.76,-26.25 45.26,-17.2 80.11,-41.19 104.55,-71.97 24.44,-31.23 37.12,-66.54 37.57,-106.37 -0.45,-37.12 -12.22,-69.25 -34.85,-95.95 -22.63,-26.71 -57.03,-49.79 -103.65,-69.25 -46.62,-19.92 -105.91,-38.02 -177.88,-54.77l-206.4 -47.98c-171.09,-39.38 -305.52,-102.74 -404.19,-190.55 -98.22,-87.81 -147.1,-206.4 -146.65,-356.21 -0.45,-122.21 32.59,-229.48 98.67,-321.36 66.08,-91.89 157.51,-163.4 274.74,-215 117.23,-51.15 250.3,-76.95 400.12,-76.95 152.99,0 286.06,25.8 398.76,77.4 113.15,52.05 200.51,124.47 262.97,217.71 62.46,93.24 94.14,200.96 95.5,324.07l-457.15 0zm661.74 -204.58l0 -387.9 1669.27 0 0 387.9 -598.82 0 0 1587.35 -470.73 0 0 -1587.35 -599.73 0zm2083.88 1587.35l-512.82 0 666.26 -1975.24 635.48 0 666.26 1975.24 -512.82 0 -463.94 -1477.36 -15.39 0 -463.03 1477.36zm-68.35 -777.15l1072.26 0 0 362.55 -1072.26 0 0 -362.55zm1437.98 -1198.09l533.19 0 417.77 826.49 17.2 0 417.77 -826.49 533.19 0 -722.39 1315.77 0 659.47 -474.35 0 0 -659.47 -722.38 -1315.77z"/>
  <path class="fil1" d="M4658.59 0c2572.86,0 4658.58,2085.72 4658.58,4658.59 0,2572.86 -2085.72,4658.58 -4658.58,4658.58 -2572.86,0 -4658.59,-2085.72 -4658.59,-4658.58 0,-2572.86 2085.72,-4658.59 4658.59,-4658.59z"/>
  <path class="fil2" d="M2092.53 5551.98l0 -1785.16 1244.78 0 0 350.57 -813.22 0 0 366.11 749.41 0 0 350.98 -749.41 0 0 366.93 813.22 0 0 350.57 -1244.78 0zm2479.75 -1249.69c-5.72,-64.22 -31.49,-113.72 -77.31,-149.72 -45.41,-35.59 -110.45,-53.59 -194.71,-53.59 -55.64,0 -102.27,7.36 -139.49,21.68 -37.23,14.72 -65.04,34.77 -83.45,59.72 -18.82,25.36 -28.23,54.4 -29.05,86.72 -0.82,27 4.5,50.31 16.36,70.77 11.86,20.45 29.45,38.04 52.36,53.59 22.91,15.55 50.72,29.05 83.04,40.5 32.72,11.46 69.13,21.68 110.04,30.68l153.4 34.77c87.95,19.22 166.08,44.59 233.98,76.49 67.5,31.91 124.36,70.36 170.58,114.54 46.22,43.77 81.41,94.91 105.13,152.18 23.73,57.68 36,122.31 36.81,193.49 -0.81,112.9 -29.45,209.44 -85.49,290.43 -56.45,80.59 -137.45,142.76 -242.99,185.72 -105.13,42.95 -232.35,64.22 -381.25,64.22 -149.31,0 -279.39,-22.09 -390.25,-67.09 -111.27,-44.59 -197.58,-112.49 -258.94,-203.72 -61.77,-91.22 -93.26,-206.58 -94.9,-346.07l413.16 0c3.27,57.27 18.82,105.54 45.81,143.58 27.41,38.45 65.04,67.49 112.9,87.13 48.27,20.05 103.9,29.86 166.9,29.86 58.09,0 107.58,-7.77 148.9,-23.73 40.91,-15.54 72.41,-37.22 94.49,-65.04 22.09,-28.22 33.54,-60.13 33.95,-96.13 -0.41,-33.54 -11.04,-62.58 -31.49,-86.72 -20.45,-24.13 -51.55,-45 -93.68,-62.58 -42.13,-18 -95.73,-34.36 -160.76,-49.5l-186.54 -43.36c-154.62,-35.59 -276.12,-92.86 -365.29,-172.21 -88.77,-79.36 -132.95,-186.53 -132.54,-321.94 -0.41,-110.45 29.45,-207.39 89.17,-290.43 59.73,-83.04 142.35,-147.67 248.3,-194.31 105.95,-46.22 226.21,-69.54 361.61,-69.54 138.27,0 258.53,23.32 360.39,69.95 102.27,47.04 181.22,112.49 237.67,196.76 56.45,84.27 85.08,181.62 86.31,292.89l-413.16 0zm656.14 -535.47l534.24 0 453.24 1105.29 20.86 0 453.25 -1105.29 534.65 0 0 1785.16 -420.11 0 0 -1096.3 -15.13 0 -428.7 1084.84 -268.35 0 -428.7 -1090.97 -15.13 0 0 1102.43 -420.11 0 0 -1785.16z"/>
 </g>
</svg>
